<?xml version="1.0" standalone="no"?>
<!DOCTYPE svg PUBLIC "-//W3C//DTD SVG 20010904//EN"
 "http://www.w3.org/TR/2001/REC-SVG-20010904/DTD/svg10.dtd">
<svg version="1.0" xmlns="http://www.w3.org/2000/svg"
 width="700.000000pt" height="700.000000pt" viewBox="0 0 700.000000 700.000000"
 preserveAspectRatio="xMidYMid meet">
<metadata>
Created by potrace 1.14, written by Peter Selinger 2001-2017
</metadata>
<g transform="translate(0.000000,700.000000) scale(0.100000,-0.100000)"
fill="#000000" stroke="none">
<path d="M0 3500 l0 -3500 3500 0 3500 0 0 3500 0 3500 -3500 0 -3500 0 0
-3500z m2190 2185 l0 -875 -875 0 -875 0 0 875 0 875 875 0 875 0 0 -875z
m2188 3 l-3 -873 -875 0 -875 0 -3 873 -2 872 880 0 880 0 -2 -872z m2182 -3
l0 -875 -875 0 -875 0 0 875 0 875 875 0 875 0 0 -875z m-4375 -2185 l0 -875
-872 -3 -873 -2 0 880 0 880 873 -2 872 -3 0 -875z m2190 0 l0 -875 -875 0
-875 0 -3 865 c-1 476 0 871 3 878 3 10 184 12 877 10 l873 -3 0 -875z m2185
0 l0 -880 -872 2 -873 3 -3 865 c-1 476 0 871 3 878 3 9 188 12 875 12 l870 0
0 -880z m-4370 -2185 l0 -875 -875 0 -875 0 0 875 0 875 875 0 875 0 0 -875z
m2188 -2 l2 -873 -880 0 -880 0 0 868 c0 478 3 872 7 875 3 4 398 6 877 5
l871 -3 3 -872z m2182 2 l0 -875 -875 0 -875 0 0 875 0 875 875 0 875 0 0
-875z"/>
</g>
</svg>
